<svg width="134" height="48" viewBox="0 0 134 48" fill="none" xmlns="http://www.w3.org/2000/svg">
<path d="M44.0325 42.7784C43.6951 43.1679 43.3274 43.461 42.9293 43.6577C42.5313 43.8505 42.101 43.9469 41.6385 43.9469C40.7855 43.9469 40.1089 43.6479 39.6084 43.0498C39.2028 42.562 39 42.017 39 41.4151C39 40.88 39.1649 40.398 39.4947 39.9692C39.8283 39.5364 40.3249 39.1567 40.9846 38.8302C40.6093 38.3816 40.3591 38.0177 40.234 37.7384C40.1089 37.459 40.0463 37.1895 40.0463 36.9298C40.0463 36.4105 40.2415 35.96 40.632 35.5784C41.0263 35.1928 41.521 35 42.1162 35C42.6848 35 43.1492 35.181 43.5093 35.543C43.8733 35.9049 44.0552 36.3397 44.0552 36.8472C44.0552 37.6695 43.5302 38.3718 42.4801 38.9541L43.9756 40.9311C44.1462 40.5849 44.2789 40.1836 44.3737 39.7272L45.437 39.9633C45.2551 40.7187 45.0087 41.3403 44.6978 41.8282C45.0807 42.3554 45.5148 42.798 46 43.1561L45.3119 44C44.8987 43.7246 44.4722 43.3174 44.0325 42.7784ZM41.9513 38.2695C42.3948 37.998 42.681 37.76 42.8099 37.5554C42.9426 37.3508 43.0089 37.1246 43.0089 36.8767C43.0089 36.5816 42.918 36.3416 42.736 36.1567C42.5578 35.9679 42.3341 35.8734 42.065 35.8734C41.7882 35.8734 41.557 35.9659 41.3712 36.1508C41.1893 36.3357 41.0983 36.562 41.0983 36.8295C41.0983 36.9633 41.1305 37.1049 41.195 37.2544C41.2632 37.4 41.3637 37.5554 41.4963 37.7207L41.9513 38.2695ZM43.3899 41.9403L41.5134 39.5266C40.9599 39.8689 40.5865 40.1875 40.3932 40.4826C40.1998 40.7738 40.1032 41.063 40.1032 41.3502C40.1032 41.7003 40.2377 42.0643 40.5069 42.442C40.7761 42.8197 41.1571 43.0085 41.6499 43.0085C41.9569 43.0085 42.2735 42.9102 42.5995 42.7134C42.9293 42.5128 43.1928 42.2551 43.3899 41.9403Z" fill="#333333"/>
<path d="M4.91655 35.6325C3.81317 35.6325 3.00997 36.0342 2.46639 36.6923V35.8803H0V48H2.46639V43.7179C3.00997 44.3761 3.81317 44.7778 4.91655 44.7778C7.06653 44.7778 8.8433 42.7863 8.8433 40.2051C8.8433 37.6239 7.06653 35.6325 4.91655 35.6325ZM4.42165 42.3162C3.28581 42.3162 2.46639 41.5043 2.46639 40.2051C2.46639 38.906 3.28581 38.094 4.42165 38.094C5.55749 38.094 6.37691 38.906 6.37691 40.2051C6.37691 41.5043 5.55749 42.3162 4.42165 42.3162ZM12.7051 37.4188V35.8803H10.2388V44.5385H12.7051V40.6239C12.7051 38.906 14.1574 38.4786 15.1715 38.6496V35.7009C14.1331 35.7009 13.0378 36.2564 12.7051 37.4188ZM17.5568 35.1197C18.36 35.1197 19.0334 34.4017 19.0334 33.5556C19.0334 32.7094 18.36 32 17.5568 32C16.7536 32 16.0802 32.7094 16.0802 33.5556C16.0802 34.4017 16.7536 35.1197 17.5568 35.1197ZM16.3236 44.5385H18.79V35.8803H16.3236V44.5385ZM25.4103 35.6325C24.3475 35.6581 23.7065 35.9487 23.2279 36.5641L22.6924 35.8803H20.5992V44.5385H23.0656V39.812C23.0656 38.5812 23.6903 38.0256 24.5909 38.0256C25.3778 38.0256 26.0188 38.5299 26.0188 39.5983V44.5385H28.4852V39.2222C28.4852 36.8803 27.0735 35.5983 25.4103 35.6325ZM35 38.3675V35.8803H33.3044V33.453L30.838 34.2308V35.8803H29.5236V38.3675L30.838 38.5556V41.4359C30.838 43.8632 31.771 44.8803 35 44.5385V42.1795C33.9128 42.2479 33.3044 42.1795 33.3044 41.4359V38.4957L35 38.3675Z" fill="#333333"/>
<path d="M54.9807 35.6298C53.8614 35.6298 53.05 36.0363 52.4903 36.6897V35.8766H50V48H52.4903V43.7169C53.05 44.3848 53.8614 44.7768 54.9807 44.7768C57.1632 44.7768 58.968 42.7877 58.968 40.2033C58.968 37.6189 57.1632 35.6298 54.9807 35.6298ZM54.477 42.323C53.3298 42.323 52.4903 41.51 52.4903 40.2033C52.4903 38.9111 53.3298 38.098 54.477 38.098C55.6382 38.098 56.4637 38.9111 56.4637 40.2033C56.4637 41.51 55.6382 42.323 54.477 42.323ZM62.8994 37.4156V35.8766H60.3951V44.5299H62.8994V40.6243C62.8994 38.9111 64.3684 38.4755 65.4037 38.6497V35.7024C64.3404 35.7024 63.2352 36.2541 62.8994 37.4156ZM70.3284 44.7768C72.7768 44.7768 74.7495 42.7877 74.7495 40.2033C74.7495 37.6189 72.7768 35.6298 70.3284 35.6298C67.8661 35.6298 65.8934 37.6189 65.8934 40.2033C65.8934 42.7877 67.8661 44.7768 70.3284 44.7768ZM70.3284 42.2505C69.2372 42.2505 68.3977 41.4374 68.3977 40.2033C68.3977 38.9837 69.2372 38.1561 70.3284 38.1561C71.4057 38.1561 72.2452 38.9837 72.2452 40.2033C72.2452 41.4374 71.4057 42.2505 70.3284 42.2505ZM82.2205 32.4065V36.6897C81.6749 36.0363 80.8494 35.6298 79.7302 35.6298C77.5476 35.6298 75.7428 37.6189 75.7428 40.2033C75.7428 42.7877 77.5476 44.7768 79.7302 44.7768C80.8494 44.7768 81.6749 44.3848 82.2205 43.7169V44.5299H84.7248V32.4065H82.2205ZM80.2338 42.323C79.0866 42.323 78.2472 41.51 78.2472 40.2033C78.2472 38.9111 79.0866 38.098 80.2338 38.098C81.3811 38.098 82.2205 38.9111 82.2205 40.2033C82.2205 41.51 81.3811 42.323 80.2338 42.323ZM91.958 35.8766V40.6098C91.958 41.8294 91.3145 42.3956 90.4051 42.3956C89.5936 42.3956 88.95 41.8875 88.95 40.8131V35.8766H86.4457V41.1906C86.4457 43.5281 87.8728 44.7768 89.5656 44.7768C90.6709 44.7768 91.4963 44.3702 91.958 43.7169V44.5299H94.4484V35.8766H91.958ZM100.296 44.7768C101.933 44.7768 103.346 43.8911 104.074 42.5408L101.877 41.2486C101.612 41.8584 100.996 42.2214 100.268 42.2214C99.1772 42.2214 98.3797 41.4083 98.3797 40.2033C98.3797 39.0127 99.1772 38.1996 100.268 38.1996C100.996 38.1996 101.598 38.5626 101.877 39.1724L104.074 37.8512C103.346 36.5154 101.919 35.6298 100.296 35.6298C97.7642 35.6298 95.8754 37.6189 95.8754 40.2033C95.8754 42.7877 97.7642 44.7768 100.296 44.7768ZM110.384 38.3739V35.8766H108.663V33.4519L106.159 34.2359V35.8766H104.815V38.3739H106.159V41.4374C106.159 43.8621 107.11 44.8784 110.384 44.5299V42.1779C109.278 42.2505 108.663 42.1779 108.663 41.4374V38.3739H110.384ZM113.042 35.1071C113.867 35.1071 114.553 34.4102 114.553 33.5535C114.553 32.7114 113.867 32 113.042 32C112.231 32 111.545 32.7114 111.545 33.5535C111.545 34.4102 112.231 35.1071 113.042 35.1071ZM111.797 44.5299H114.301V35.8766H111.797V44.5299ZM120.135 44.7768C122.598 44.7768 124.57 42.7877 124.57 40.2033C124.57 37.6189 122.598 35.6298 120.135 35.6298C117.687 35.6298 115.714 37.6189 115.714 40.2033C115.714 42.7877 117.687 44.7768 120.135 44.7768ZM120.135 42.2505C119.058 42.2505 118.219 41.4374 118.219 40.2033C118.219 38.9837 119.058 38.1561 120.135 38.1561C121.227 38.1561 122.066 38.9837 122.066 40.2033C122.066 41.4374 121.227 42.2505 120.135 42.2505ZM130.866 35.6298C129.775 35.6298 128.935 36.0508 128.488 36.6897V35.8766H125.983V44.5299H128.488V39.8113C128.488 38.5771 129.117 38.0254 130.041 38.0254C130.838 38.0254 131.496 38.5336 131.496 39.5935V44.5299H134V39.216C134 36.8784 132.559 35.6298 130.866 35.6298Z" fill="#333333"/>
<path d="M0 0H7.28494V17.8316C7.28494 18.746 7.66133 19.492 8.41411 20.0695C9.19117 20.6471 10.1261 20.9358 11.2188 20.9358C12.263 20.9358 13.21 20.635 14.0599 20.0334C14.9099 19.4318 15.3348 18.6979 15.3348 17.8316V0H22.6198V17.8316C22.6198 20.4305 21.527 22.6083 19.3415 24.365C17.156 26.1217 14.4606 27 11.2552 27C8.147 27 5.48799 26.1217 3.27822 24.365C1.09274 22.6083 0 20.4305 0 17.8316V0ZM6.55645 0.721927H0.728494V17.8316C0.728494 20.262 1.73625 22.2834 3.75175 23.8957C5.79153 25.484 8.29269 26.2781 11.2552 26.2781C14.3149 26.2781 16.8525 25.4719 18.868 23.8596C20.8835 22.2473 21.8913 20.238 21.8913 17.8316V0.721927H16.0633V17.8316C16.0633 18.8904 15.5534 19.7928 14.5335 20.5388C13.5136 21.2848 12.4087 21.6578 11.2188 21.6578C9.98037 21.6578 8.88763 21.2968 7.94059 20.5749C7.01783 19.8529 6.55645 18.9385 6.55645 17.8316V0.721927Z" fill="black"/>
<path d="M27.3333 26.2781V0H41.1747C43.7487 0 45.9464 0.770054 47.7676 2.31016C49.5888 3.85027 50.4995 5.72727 50.4995 7.94118C50.4995 10.9492 49.346 12.9586 47.0391 13.9693V14.1136C47.7919 14.3783 48.399 14.8717 48.8603 15.5936C49.3217 16.2914 49.5524 16.9893 49.5524 17.6872V22.5963C49.5524 23.4626 49.6253 24.1364 49.771 24.6176C49.9167 25.0749 50.2202 25.6283 50.6816 26.2781H43.2509C42.8624 25.6043 42.5953 25.0027 42.4496 24.4733C42.3282 23.9198 42.2675 23.2821 42.2675 22.5602V19.492C42.2675 18.8663 42.0489 18.3249 41.6118 17.8676C41.1747 17.4104 40.6284 17.1818 39.9727 17.1818H34.6183V26.2781H27.3333ZM34.6183 6.06417V11.623H40.1548C40.9319 11.623 41.5997 11.3583 42.1582 10.8289C42.7167 10.2995 42.996 9.6377 42.996 8.84358C42.996 8.07353 42.7167 7.4238 42.1582 6.89439C41.624 6.34091 40.9562 6.06417 40.1548 6.06417H34.6183ZM28.0618 0.721927V25.5561H33.8898V16.4599H39.9727C40.7498 16.4599 41.4418 16.7727 42.0489 17.3984C42.6803 18 42.996 18.6979 42.996 19.492V22.5602C42.996 23.7874 43.2267 24.7861 43.688 25.5561H49.261C49.2125 25.484 49.1275 25.135 49.0061 24.5094C48.8846 23.8837 48.8239 23.246 48.8239 22.5963V17.7594C48.8239 16.9171 48.5568 16.1832 48.0226 15.5575C47.4155 14.8596 46.5292 14.3783 45.3636 14.1136V13.9693C46.6991 13.7286 47.7676 13.0789 48.569 12.0201C49.3703 10.9612 49.771 9.60161 49.771 7.94118C49.771 5.89572 48.9453 4.18717 47.2941 2.81551C45.6671 1.41979 43.6273 0.721927 41.1747 0.721927H28.0618ZM33.8898 12.3449V5.34225H40.1548C41.0776 5.34225 41.9032 5.69118 42.6317 6.38904C43.3602 7.0869 43.7245 7.90508 43.7245 8.84358C43.7245 9.75802 43.3602 10.5762 42.6317 11.2981C41.9275 11.996 41.1019 12.3449 40.1548 12.3449H33.8898Z" fill="black"/>
<path d="M55.0503 26.2781V0H68.8552C71.2107 0 73.1898 0.721925 74.7925 2.16578C76.3952 3.60963 77.1965 5.37834 77.1965 7.47193C77.1965 8.43449 76.8808 9.43316 76.2495 10.4679C75.6424 11.5027 74.8775 12.2607 73.9547 12.742C75.266 13.2473 76.3709 14.0535 77.2694 15.1604C78.1678 16.2433 78.6171 17.3382 78.6171 18.4452C78.6171 20.611 77.8279 22.4639 76.2495 24.004C74.6953 25.5201 72.7648 26.2781 70.4579 26.2781H55.0503ZM62.3352 6.06417V9.99866H67.7261C68.3089 9.99866 68.8188 9.80615 69.2559 9.42112C69.693 9.0361 69.9116 8.56684 69.9116 8.01337C69.9116 7.45989 69.693 7.00267 69.2559 6.64171C68.8431 6.25669 68.3332 6.06417 67.7261 6.06417H62.3352ZM62.3352 15.3409V20.2139H68.4181C69.1709 20.2139 69.7901 19.9853 70.2758 19.5281C70.7858 19.0468 71.0407 18.4572 71.0407 17.7594C71.0407 17.1096 70.7858 16.5441 70.2758 16.0628C69.7659 15.5816 69.1466 15.3409 68.4181 15.3409H62.3352ZM55.7788 0.721927V25.5561H70.4579C72.4977 25.5561 74.2461 24.8583 75.7031 23.4626C77.1601 22.0668 77.8886 20.3824 77.8886 18.4091C77.8886 17.3743 77.3665 16.3155 76.3223 15.2326C75.3024 14.1257 74.0518 13.3316 72.5706 12.8503C73.6633 12.3449 74.5861 11.5869 75.3388 10.5762C76.0916 9.54144 76.468 8.51872 76.468 7.50802C76.468 5.58289 75.7395 3.97059 74.2825 2.67112C72.8255 1.37166 71.0164 0.721927 68.8552 0.721927H55.7788ZM61.6067 10.7206V5.34225H67.7261C68.5517 5.34225 69.2438 5.59492 69.8023 6.10027C70.3608 6.60562 70.6401 7.23128 70.6401 7.97727C70.6401 8.72326 70.3608 9.373 69.8023 9.92647C69.2681 10.4559 68.576 10.7206 67.7261 10.7206H61.6067ZM61.6067 20.9358V14.619H68.4181C69.3652 14.619 70.1544 14.9198 70.7858 15.5214C71.4414 16.0989 71.7692 16.8329 71.7692 17.7233C71.7692 18.6136 71.4535 19.3717 70.8222 19.9973C70.1908 20.623 69.3895 20.9358 68.4181 20.9358H61.6067Z" fill="black"/>
<path d="M80.9426 26.2781L90.7408 0H98.2443L108.043 26.2781H100.211L98.645 21.1885H90.3401L88.7739 26.2781H80.9426ZM96.8602 15.8463L94.5654 8.55481L92.0521 15.8463H96.8602ZM91.2508 0.721927L81.9989 25.5561H88.2275L89.7938 20.4666H99.1913L100.758 25.5561H106.986L97.7344 0.721927H91.2508ZM97.8436 16.5682H91.0322L94.529 6.24465L97.8436 16.5682Z" fill="black"/>
<path d="M111.089 26.2781V0H118.41L126.642 14.258L126.715 0H134V26.2781H126.715L118.447 11.7674L118.374 26.2781H111.089ZM111.817 0.721927V25.5561H117.645V8.98797L127.152 25.5561H133.271V0.721927H127.444V16.9652L117.973 0.721927H111.817Z" fill="black"/>
</svg>
